# xmcd CD database file
#
# Track frame offsets:
#	150
#	20990
#	66945
#
# Disc length: 1120 seconds
#
# Revision: 0
# Processed by: cddbd v1.5.1PL0 Copyright (c) Steve Scherf et al.
# Submitted via: CDex 1.51
#
DISCID=27045e03
DTITLE=藤原いくろう/W's - ウィザードリィ・外伝IV〜胎魔の鼓動＜第1景 運命之邂逅＞
DYEAR=1996
DGENRE=Game
TTITLE0=オープニング・テーマ
TTITLE1=＜ドラマ＞第1景 運命之邂逅
TTITLE2=to The TRUTH
EXTD=YEAR: 1996
EXTT0=
EXTT1=
EXTT2=
PLAYORDER=
